<?xml version="1.0" encoding="UTF-8"?>
<svg xmlns="http://www.w3.org/2000/svg" viewBox="0 0 720 720" width="1440" height="1440">
  <defs>
    <style>
      .space-rect { fill: #f5f0e6; stroke: #999; stroke-width: 0.75; }
      .corner-rect { fill: #e8e0d0; stroke: #999; stroke-width: 0.75; }
      .color-band { opacity: 0.85; }
      .space-label { font-family: 'Helvetica Neue', Arial, sans-serif; font-size: 7px; fill: #333; text-anchor: middle; dominant-baseline: middle; }
      .space-num { font-family: 'Helvetica Neue', Arial, sans-serif; font-size: 6px; fill: #999; text-anchor: middle; }
      .corner-label { font-family: 'Helvetica Neue', Arial, sans-serif; font-size: 6.5px; fill: #333; text-anchor: middle; dominant-baseline: middle; font-weight: 600; }
      .price-label { font-family: 'Helvetica Neue', Arial, sans-serif; font-size: 6px; fill: #777; text-anchor: middle; }
      .center-title { font-family: 'Georgia', serif; font-size: 16px; fill: #666; text-anchor: middle; letter-spacing: 3px; }
      .center-sub { font-family: 'Helvetica Neue', Arial, sans-serif; font-size: 10px; fill: #999; text-anchor: middle; }
      .guide-text { font-family: 'Helvetica Neue', Arial, sans-serif; font-size: 8px; fill: #bbb; text-anchor: middle; }
      .group-legend { font-family: 'Helvetica Neue', Arial, sans-serif; font-size: 7px; fill: #666; }
    </style>
  </defs>

  <!-- Board background - this is the area Orli designs over -->
  <rect width="720" height="720" fill="#f9f5ed" rx="8"/>

  <!-- ============================================ -->
  <!-- GUIDE LINES - shows the space grid structure -->
  <!-- Orli can design freely but spaces must be    -->
  <!-- visually distinguishable in these positions   -->
  <!-- ============================================ -->

  <!-- Center area - free for art/branding -->
  <rect x="68" y="68" width="584" height="584" fill="#faf7f0" stroke="#ddd" stroke-width="0.5" stroke-dasharray="4,4" rx="4"/>
  <text x="360" y="140" class="center-title">THE LANDLORD'S GAME</text>
  <text x="360" y="165" class="center-sub">PROSPERITY BOARD - Design Template</text>

  <!-- Creative direction -->
  <text x="360" y="210" class="guide-text" style="font-weight:600; fill:#888;">VISUAL DIRECTION</text>
  <text x="360" y="230" class="guide-text">Mood: Green, organic, regenerative, cooperative</text>
  <text x="360" y="245" class="guide-text">Palette: Earth tones, greens, warm sunlight, water blues</text>
  <text x="360" y="260" class="guide-text">Textures: Flowing lines, trees, rivers, open fields, gardens</text>
  <text x="360" y="275" class="guide-text">Center art idea: Garden, commons, watershed, or village green</text>
  <text x="360" y="290" class="guide-text">Human/Tech relationship: Technology serves nature</text>
  <text x="360" y="305" class="guide-text">Feeling: "The world cooperation builds"</text>

  <!-- Technical notes -->
  <text x="360" y="345" class="guide-text" style="font-weight:600; fill:#888;">TECHNICAL NOTES</text>
  <text x="360" y="365" class="guide-text">Export as HIGH-RES PNG from Canva (1440px+ square)</text>
  <text x="360" y="380" class="guide-text">This grid shows where code overlays game tokens</text>
  <text x="360" y="395" class="guide-text">Spaces must be visually distinguishable (borders/contrast)</text>
  <text x="360" y="410" class="guide-text">Color bands on spaces can match your palette - we adapt the code</text>
  <text x="360" y="425" class="guide-text">Center area is 100% free for your artwork</text>

  <!-- =================== -->
  <!-- CORNER SPACES       -->
  <!-- =================== -->

  <!-- Pos 0: Mother Earth (GO) - bottom-right corner -->
  <rect x="670" y="670" width="50" height="50" class="corner-rect"/>
  <text x="695" y="688" class="corner-label">Mother</text>
  <text x="695" y="698" class="corner-label">Earth</text>
  <text x="695" y="710" class="space-num">#0 GO</text>

  <!-- Pos 10: Jail - bottom-left corner -->
  <rect x="0" y="670" width="50" height="50" class="corner-rect"/>
  <text x="25" y="688" class="corner-label">Jail</text>
  <text x="25" y="710" class="space-num">#10</text>

  <!-- Pos 20: Public Park - top-left corner -->
  <rect x="0" y="0" width="50" height="50" class="corner-rect"/>
  <text x="25" y="18" class="corner-label">Public</text>
  <text x="25" y="28" class="corner-label">Park</text>
  <text x="25" y="40" class="space-num">#20</text>

  <!-- Pos 30: Go to Jail - top-right corner -->
  <rect x="670" y="0" width="50" height="50" class="corner-rect"/>
  <text x="695" y="18" class="corner-label">Go to</text>
  <text x="695" y="28" class="corner-label">Jail</text>
  <text x="695" y="40" class="space-num">#30</text>

  <!-- ======================================== -->
  <!-- BOTTOM ROW (pos 1-9, right to left)      -->
  <!-- Each space: 68.89w x 68h                 -->
  <!-- y=652, h=68                              -->
  <!-- ======================================== -->

  <!-- Pos 1: Poverty Place - Group 1 (Brown) -->
  <rect x="601.11" y="652" width="68.89" height="68" class="space-rect"/>
  <rect x="601.11" y="652" width="68.89" height="10" fill="#8B5814" class="color-band"/>
  <text x="635.56" y="680" class="space-label">Poverty Place</text>
  <text x="635.56" y="690" class="price-label">$60</text>
  <text x="635.56" y="712" class="space-num">#1</text>

  <!-- Pos 2: Community Chest -->
  <rect x="532.22" y="652" width="68.89" height="68" class="space-rect"/>
  <text x="566.67" y="682" class="space-label">Community</text>
  <text x="566.67" y="692" class="space-label">Chest</text>
  <text x="566.67" y="712" class="space-num">#2</text>

  <!-- Pos 3: Easy Street - Group 1 (Brown) -->
  <rect x="463.33" y="652" width="68.89" height="68" class="space-rect"/>
  <rect x="463.33" y="652" width="68.89" height="10" fill="#8B5814" class="color-band"/>
  <text x="497.78" y="680" class="space-label">Easy Street</text>
  <text x="497.78" y="690" class="price-label">$60</text>
  <text x="497.78" y="712" class="space-num">#3</text>

  <!-- Pos 4: Absolute Necessity (Tax) -->
  <rect x="394.44" y="652" width="68.89" height="68" class="space-rect"/>
  <text x="428.89" y="680" class="space-label">Absolute</text>
  <text x="428.89" y="690" class="space-label">Necessity</text>
  <text x="428.89" y="700" class="price-label">TAX $50</text>
  <text x="428.89" y="712" class="space-num">#4</text>

  <!-- Pos 5: Soakum Lighting Co. (Utility) -->
  <rect x="325.56" y="652" width="68.89" height="68" class="space-rect"/>
  <text x="360" y="680" class="space-label">Soakum</text>
  <text x="360" y="690" class="space-label">Lighting Co.</text>
  <text x="360" y="700" class="price-label">$150</text>
  <text x="360" y="712" class="space-num">#5</text>

  <!-- Pos 6: Lonely Lane - Group 2 (Light Blue) -->
  <rect x="256.67" y="652" width="68.89" height="68" class="space-rect"/>
  <rect x="256.67" y="652" width="68.89" height="10" fill="#5BA0C0" class="color-band"/>
  <text x="291.11" y="680" class="space-label">Lonely Lane</text>
  <text x="291.11" y="690" class="price-label">$100</text>
  <text x="291.11" y="712" class="space-num">#6</text>

  <!-- Pos 7: Family Emergency (Expense) -->
  <rect x="187.78" y="652" width="68.89" height="68" class="space-rect"/>
  <text x="222.22" y="680" class="space-label">Family</text>
  <text x="222.22" y="690" class="space-label">Emergency</text>
  <text x="222.22" y="700" class="price-label">$50</text>
  <text x="222.22" y="712" class="space-num">#7</text>

  <!-- Pos 8: Boomtown - Group 2 (Light Blue) -->
  <rect x="118.89" y="652" width="68.89" height="68" class="space-rect"/>
  <rect x="118.89" y="652" width="68.89" height="10" fill="#5BA0C0" class="color-band"/>
  <text x="153.33" y="680" class="space-label">Boomtown</text>
  <text x="153.33" y="690" class="price-label">$100</text>
  <text x="153.33" y="712" class="space-num">#8</text>

  <!-- Pos 9: Slambang Trolley (Railroad) -->
  <rect x="50" y="652" width="68.89" height="68" class="space-rect"/>
  <text x="84.44" y="682" class="space-label">Slambang</text>
  <text x="84.44" y="692" class="space-label">Trolley</text>
  <text x="84.44" y="702" class="price-label">$200</text>
  <text x="84.44" y="712" class="space-num">#9</text>

  <!-- ======================================== -->
  <!-- LEFT COLUMN (pos 11-19, bottom to top)   -->
  <!-- Each space: 68w x 68.89h                 -->
  <!-- x=0, w=68                                -->
  <!-- ======================================== -->

  <!-- Pos 11: Beggarman's Court - Group 3 (Pink) -->
  <rect x="0" y="601.11" width="68" height="68.89" class="space-rect"/>
  <rect x="58" y="601.11" width="10" height="68.89" fill="#D06090" class="color-band"/>
  <text x="29" y="633" class="space-label">Beggarman's</text>
  <text x="29" y="643" class="space-label">Court</text>
  <text x="29" y="653" class="price-label">$120</text>
  <text x="29" y="663" class="space-num">#11</text>

  <!-- Pos 12: Rubeville - Group 3 (Pink) -->
  <rect x="0" y="532.22" width="68" height="68.89" class="space-rect"/>
  <rect x="58" y="532.22" width="10" height="68.89" fill="#D06090" class="color-band"/>
  <text x="29" y="566" class="space-label">Rubeville</text>
  <text x="29" y="576" class="price-label">$120</text>
  <text x="29" y="590" class="space-num">#12</text>

  <!-- Pos 13: The Bowery - Group 4 (Orange) -->
  <rect x="0" y="463.33" width="68" height="68.89" class="space-rect"/>
  <rect x="58" y="463.33" width="10" height="68.89" fill="#D08828" class="color-band"/>
  <text x="29" y="497" class="space-label">The Bowery</text>
  <text x="29" y="507" class="price-label">$140</text>
  <text x="29" y="521" class="space-num">#13</text>

  <!-- Pos 14: Community Bounty (Windfall) -->
  <rect x="0" y="394.44" width="68" height="68.89" class="space-rect"/>
  <text x="29" y="425" class="space-label">Community</text>
  <text x="29" y="435" class="space-label">Bounty</text>
  <text x="29" y="445" class="price-label">$50</text>
  <text x="29" y="455" class="space-num">#14</text>

  <!-- Pos 15: Rickety Row - Group 4 (Orange) -->
  <rect x="0" y="325.56" width="68" height="68.89" class="space-rect"/>
  <rect x="58" y="325.56" width="10" height="68.89" fill="#D08828" class="color-band"/>
  <text x="29" y="359" class="space-label">Rickety Row</text>
  <text x="29" y="369" class="price-label">$140</text>
  <text x="29" y="383" class="space-num">#15</text>

  <!-- Pos 16: Grand Boulevard RR (Railroad) -->
  <rect x="0" y="256.67" width="68" height="68.89" class="space-rect"/>
  <text x="29" y="287" class="space-label">Grand Blvd</text>
  <text x="29" y="297" class="space-label">Railroad</text>
  <text x="29" y="307" class="price-label">$200</text>
  <text x="29" y="317" class="space-num">#16</text>

  <!-- Pos 17: Lord Blueblood's - Group 5 (Red) -->
  <rect x="0" y="187.78" width="68" height="68.89" class="space-rect"/>
  <rect x="58" y="187.78" width="10" height="68.89" fill="#CC2828" class="color-band"/>
  <text x="29" y="218" class="space-label">Lord</text>
  <text x="29" y="228" class="space-label">Blueblood's</text>
  <text x="29" y="238" class="price-label">$160</text>
  <text x="29" y="248" class="space-num">#17</text>

  <!-- Pos 18: Chance -->
  <rect x="0" y="118.89" width="68" height="68.89" class="space-rect"/>
  <text x="29" y="155" class="space-label">Chance</text>
  <text x="29" y="175" class="space-num">#18</text>

  <!-- Pos 19: Crooked Lane - Group 5 (Red) -->
  <rect x="0" y="50" width="68" height="68.89" class="space-rect"/>
  <rect x="58" y="50" width="10" height="68.89" fill="#CC2828" class="color-band"/>
  <text x="29" y="82" class="space-label">Crooked Lane</text>
  <text x="29" y="92" class="price-label">$160</text>
  <text x="29" y="106" class="space-num">#19</text>

  <!-- ======================================== -->
  <!-- TOP ROW (pos 21-29, left to right)       -->
  <!-- Each space: 68.89w x 68h                 -->
  <!-- y=0, h=68                                -->
  <!-- ======================================== -->

  <!-- Pos 21: La Swelle Hotel - Group 6 (Yellow) -->
  <rect x="50" y="0" width="68.89" height="68" class="space-rect"/>
  <rect x="50" y="58" width="68.89" height="10" fill="#C4A028" class="color-band"/>
  <text x="84.44" y="28" class="space-label">La Swelle</text>
  <text x="84.44" y="38" class="space-label">Hotel</text>
  <text x="84.44" y="48" class="price-label">$180</text>
  <text x="84.44" y="13" class="space-num">#21</text>

  <!-- Pos 22: Aqua Pura Water Co. (Utility) -->
  <rect x="118.89" y="0" width="68.89" height="68" class="space-rect"/>
  <text x="153.33" y="28" class="space-label">Aqua Pura</text>
  <text x="153.33" y="38" class="space-label">Water Co.</text>
  <text x="153.33" y="48" class="price-label">$150</text>
  <text x="153.33" y="13" class="space-num">#22</text>

  <!-- Pos 23: Gambling Den - Group 6 (Yellow) -->
  <rect x="187.78" y="0" width="68.89" height="68" class="space-rect"/>
  <rect x="187.78" y="58" width="68.89" height="10" fill="#C4A028" class="color-band"/>
  <text x="222.22" y="30" class="space-label">Gambling Den</text>
  <text x="222.22" y="40" class="price-label">$180</text>
  <text x="222.22" y="13" class="space-num">#23</text>

  <!-- Pos 24: Broken Leg RR (Railroad) -->
  <rect x="256.67" y="0" width="68.89" height="68" class="space-rect"/>
  <text x="291.11" y="28" class="space-label">Broken Leg</text>
  <text x="291.11" y="38" class="space-label">Railroad</text>
  <text x="291.11" y="48" class="price-label">$200</text>
  <text x="291.11" y="13" class="space-num">#24</text>

  <!-- Pos 25: Calamity Avenue - Group 7 (Green) -->
  <rect x="325.56" y="0" width="68.89" height="68" class="space-rect"/>
  <rect x="325.56" y="58" width="68.89" height="10" fill="#288838" class="color-band"/>
  <text x="360" y="30" class="space-label">Calamity Ave</text>
  <text x="360" y="40" class="price-label">$200</text>
  <text x="360" y="13" class="space-num">#25</text>

  <!-- Pos 26: Chance -->
  <rect x="394.44" y="0" width="68.89" height="68" class="space-rect"/>
  <text x="428.89" y="35" class="space-label">Chance</text>
  <text x="428.89" y="13" class="space-num">#26</text>

  <!-- Pos 27: Easy Money - Group 7 (Green) -->
  <rect x="463.33" y="0" width="68.89" height="68" class="space-rect"/>
  <rect x="463.33" y="58" width="68.89" height="10" fill="#288838" class="color-band"/>
  <text x="497.78" y="30" class="space-label">Easy Money</text>
  <text x="497.78" y="40" class="price-label">$220</text>
  <text x="497.78" y="13" class="space-num">#27</text>

  <!-- Pos 28: Luxury Tax -->
  <rect x="532.22" y="0" width="68.89" height="68" class="space-rect"/>
  <text x="566.67" y="28" class="space-label">Luxury Tax</text>
  <text x="566.67" y="38" class="price-label">TAX $75</text>
  <text x="566.67" y="13" class="space-num">#28</text>

  <!-- Pos 29: Wall Street - Group 7 (Green) -->
  <rect x="601.11" y="0" width="68.89" height="68" class="space-rect"/>
  <rect x="601.11" y="58" width="68.89" height="10" fill="#288838" class="color-band"/>
  <text x="635.56" y="30" class="space-label">Wall Street</text>
  <text x="635.56" y="40" class="price-label">$220</text>
  <text x="635.56" y="13" class="space-num">#29</text>

  <!-- ======================================== -->
  <!-- RIGHT COLUMN (pos 31-39, top to bottom)  -->
  <!-- Each space: 68w x 68.89h                 -->
  <!-- x=652, w=68                              -->
  <!-- ======================================== -->

  <!-- Pos 31: Fairhope Avenue - Group 8 (Blue) -->
  <rect x="652" y="50" width="68" height="68.89" class="space-rect"/>
  <rect x="652" y="50" width="10" height="68.89" fill="#3838CC" class="color-band"/>
  <text x="690" y="82" class="space-label">Fairhope Ave</text>
  <text x="690" y="92" class="price-label">$240</text>
  <text x="690" y="106" class="space-num">#31</text>

  <!-- Pos 32: Arden Avenue - Group 8 (Blue) -->
  <rect x="652" y="118.89" width="68" height="68.89" class="space-rect"/>
  <rect x="652" y="118.89" width="10" height="68.89" fill="#3838CC" class="color-band"/>
  <text x="690" y="153" class="space-label">Arden Ave</text>
  <text x="690" y="163" class="price-label">$240</text>
  <text x="690" y="175" class="space-num">#32</text>

  <!-- Pos 33: Community Chest -->
  <rect x="652" y="187.78" width="68" height="68.89" class="space-rect"/>
  <text x="690" y="218" class="space-label">Community</text>
  <text x="690" y="228" class="space-label">Chest</text>
  <text x="690" y="248" class="space-num">#33</text>

  <!-- Pos 34: Franceswayland Ave - Group 8 (Blue) -->
  <rect x="652" y="256.67" width="68" height="68.89" class="space-rect"/>
  <rect x="652" y="256.67" width="10" height="68.89" fill="#3838CC" class="color-band"/>
  <text x="690" y="287" class="space-label">Frances-</text>
  <text x="690" y="297" class="space-label">wayland Ave</text>
  <text x="690" y="307" class="price-label">$260</text>
  <text x="690" y="317" class="space-num">#34</text>

  <!-- Pos 35: Coxeyville Short Line (Railroad) -->
  <rect x="652" y="325.56" width="68" height="68.89" class="space-rect"/>
  <text x="690" y="356" class="space-label">Coxeyville</text>
  <text x="690" y="366" class="space-label">Short Line</text>
  <text x="690" y="376" class="price-label">$200</text>
  <text x="690" y="386" class="space-num">#35</text>

  <!-- Pos 36: Chance -->
  <rect x="652" y="394.44" width="68" height="68.89" class="space-rect"/>
  <text x="690" y="430" class="space-label">Chance</text>
  <text x="690" y="450" class="space-num">#36</text>

  <!-- Pos 37: The Estates - Group 8 (Blue) -->
  <rect x="652" y="463.33" width="68" height="68.89" class="space-rect"/>
  <rect x="652" y="463.33" width="10" height="68.89" fill="#3838CC" class="color-band"/>
  <text x="690" y="497" class="space-label">The Estates</text>
  <text x="690" y="507" class="price-label">$300</text>
  <text x="690" y="521" class="space-num">#37</text>

  <!-- Pos 38: Supertax -->
  <rect x="652" y="532.22" width="68" height="68.89" class="space-rect"/>
  <text x="690" y="563" class="space-label">Supertax</text>
  <text x="690" y="573" class="price-label">TAX $100</text>
  <text x="690" y="590" class="space-num">#38</text>

  <!-- Pos 39: Prosperity Place - Group 8 (Blue) -->
  <rect x="652" y="601.11" width="68" height="68.89" class="space-rect"/>
  <rect x="652" y="601.11" width="10" height="68.89" fill="#3838CC" class="color-band"/>
  <text x="690" y="633" class="space-label">Prosperity</text>
  <text x="690" y="643" class="space-label">Place</text>
  <text x="690" y="653" class="price-label">$400</text>
  <text x="690" y="663" class="space-num">#39</text>

  <!-- ======================================== -->
  <!-- LEGEND - Color Groups                    -->
  <!-- ======================================== -->
  <g transform="translate(100, 440)">
    <text x="0" y="0" class="guide-text" style="text-anchor:start; font-weight:600;">Property Color Groups</text>

    <rect x="0" y="10" width="20" height="10" fill="#8B5814" rx="2"/>
    <text x="25" y="18" class="group-legend">Group 1: Brown (Poverty Place, Easy Street)</text>

    <rect x="0" y="25" width="20" height="10" fill="#5BA0C0" rx="2"/>
    <text x="25" y="33" class="group-legend">Group 2: Light Blue (Lonely Lane, Boomtown)</text>

    <rect x="0" y="40" width="20" height="10" fill="#D06090" rx="2"/>
    <text x="25" y="48" class="group-legend">Group 3: Pink (Beggarman's Court, Rubeville)</text>

    <rect x="0" y="55" width="20" height="10" fill="#D08828" rx="2"/>
    <text x="25" y="63" class="group-legend">Group 4: Orange (The Bowery, Rickety Row)</text>

    <rect x="0" y="70" width="20" height="10" fill="#CC2828" rx="2"/>
    <text x="25" y="78" class="group-legend">Group 5: Red (Lord Blueblood's, Crooked Lane)</text>

    <rect x="0" y="85" width="20" height="10" fill="#C4A028" rx="2"/>
    <text x="25" y="93" class="group-legend">Group 6: Yellow (La Swelle Hotel, Gambling Den)</text>

    <rect x="0" y="100" width="20" height="10" fill="#288838" rx="2"/>
    <text x="25" y="108" class="group-legend">Group 7: Green (Calamity Ave, Easy Money, Wall St)</text>

    <rect x="0" y="115" width="20" height="10" fill="#3838CC" rx="2"/>
    <text x="25" y="123" class="group-legend">Group 8: Blue (Fairhope, Arden, Frances., Estates, Prosperity)</text>
  </g>

  <!-- Direction arrow -->
  <g transform="translate(360, 610)">
    <text x="0" y="0" class="guide-text" style="font-weight:600;">Movement: clockwise from #0 (bottom-right)</text>
    <text x="0" y="14" class="guide-text">Bottom row goes RIGHT to LEFT (#1-#9)</text>
    <text x="0" y="28" class="guide-text">Left column goes BOTTOM to TOP (#11-#19)</text>
    <text x="0" y="42" class="guide-text">Top row goes LEFT to RIGHT (#21-#29)</text>
  </g>

</svg>